# Blender v3.0.1 OBJ File: ''
# www.blender.org
mtllib Cola.mtl
o Empty_Mesh_Mesh
v -0.010981 -0.000000 0.035625
v -0.037017 -0.000000 0.014317
v -0.036581 0.000000 -0.019321
v -0.010004 0.000000 -0.039951
v 0.022701 0.000000 -0.032040
v 0.036908 0.000000 -0.001545
v 0.021918 -0.000000 0.028564
v -0.006112 0.313837 0.025826
v -0.018848 0.314081 0.015396
v -0.018638 0.314539 -0.001057
v -0.005633 0.314798 -0.011150
v 0.010367 0.314722 -0.007282
v 0.017316 0.314341 0.007637
v 0.009984 0.313944 0.022369
v -0.001653 0.314325 0.007393
v -0.013772 0.011515 0.046017
v -0.046789 0.012186 0.018990
v -0.046240 0.013315 -0.023666
v -0.012535 0.014048 -0.049831
v 0.028942 0.013849 -0.039799
v 0.046961 0.012842 -0.001133
v 0.027951 0.011789 0.037056
v -0.013942 0.155802 0.049831
v -0.046961 0.156473 0.022808
v -0.046412 0.157602 -0.019848
v -0.012707 0.158350 -0.046020
v 0.028772 0.158121 -0.035980
v 0.046789 0.157114 0.002686
v 0.027778 0.156092 0.040875
v -0.009317 0.196955 0.034477
v -0.030506 0.197397 0.017139
v -0.030151 0.198114 -0.010239
v -0.008521 0.198587 -0.027031
v 0.018100 0.198435 -0.020596
v 0.029663 0.197809 0.004219
v 0.017463 0.197153 0.028736
v -0.013848 0.170603 0.049824
v -0.046578 0.171259 0.023033
v -0.046031 0.172388 -0.019253
v -0.012620 0.173105 -0.045189
v 0.028496 0.172907 -0.035244
v 0.046357 0.171915 0.003086
v 0.027514 0.170893 0.040947
v -0.006170 0.278666 0.025242
v -0.019160 0.278925 0.014610
v -0.018942 0.279383 -0.002167
v -0.005684 0.279673 -0.012463
v 0.010635 0.279566 -0.008514
v 0.017720 0.279184 0.006695
v 0.010243 0.278772 0.021721
v -0.007233 0.284449 0.029114
v -0.022896 0.284754 0.016289
v -0.022633 0.285288 -0.003944
v -0.006644 0.285639 -0.016357
v 0.013029 0.285532 -0.011600
v 0.021575 0.285059 0.006748
v 0.012558 0.284571 0.024864
vt 0.078090 0.010194
vt 0.048941 0.088231
vt 0.014898 0.088231
vt 0.051247 0.010194
vt 0.110285 0.088231
vt 0.126461 0.010194
vt 0.263273 0.088231
vt 0.247097 0.010194
vt 0.358660 0.088231
vt 0.322311 0.010194
vt 0.324617 0.088231
vt 0.295468 0.010194
vt 0.186779 0.088231
vt 0.186779 0.010194
vt 0.494571 0.943961
vt 0.422288 0.851974
vt 0.396490 0.966680
vt 0.317836 0.903023
vt 0.317836 0.800924
vt 0.396490 0.737267
vt 0.494571 0.759986
vt 0.538221 0.851974
vt 0.263273 0.519610
vt 0.358660 0.519610
vt 0.324617 0.519610
vt 0.186779 0.519610
vt 0.048941 0.519610
vt 0.050135 0.563828
vt 0.016386 0.563828
vt 0.014898 0.519610
vt 0.110947 0.563828
vt 0.110285 0.519610
vt 0.262611 0.563828
vt 0.357171 0.563828
vt 0.323423 0.563828
vt 0.186779 0.563828
vt 0.098316 0.641322
vt 0.132556 0.884696
vt 0.119163 0.884696
vt 0.076467 0.641322
vt 0.156687 0.884696
vt 0.137686 0.641322
vt 0.216871 0.884696
vt 0.235872 0.641322
vt 0.254395 0.884696
vt 0.297091 0.641322
vt 0.241003 0.884696
vt 0.275242 0.641322
vt 0.186779 0.884696
vt 0.186779 0.641322
vt 0.367448 0.068666
vt 0.367448 0.362079
vt 0.292720 0.362079
vt 0.292720 0.068666
vt 0.215541 0.362079
vt 0.215541 0.068666
vt 0.141536 0.362079
vt 0.141536 0.068666
vt 0.122197 1.150111
vt 0.129847 1.153398
vt 0.129872 1.158182
vt 0.122218 1.154078
vt 0.129802 1.144777
vt 0.122160 1.142962
vt 0.129691 1.123279
vt 0.122067 1.125131
vt 0.129621 1.109875
vt 0.122010 1.114015
vt 0.129646 1.114659
vt 0.122030 1.117982
vt 0.129746 1.134028
vt 0.122114 1.134047
vt 0.145609 1.149690
vt 0.145629 1.153581
vt 0.145573 1.142679
vt 0.145482 1.125194
vt 0.145425 1.114292
vt 0.145446 1.118183
vt 0.145527 1.133936
vn -0.4934 -0.6269 0.6029
vn -0.8078 -0.5894 -0.0105
vn -0.5103 -0.5544 -0.6574
vn -0.5103 -0.5544 -0.6575
vn 0.1971 -0.5453 -0.8148
vn 0.7440 -0.5712 -0.3466
vn 0.7440 -0.5713 -0.3466
vn 0.7062 -0.6146 0.3516
vn 0.1613 -0.6394 0.7518
vn 0.1614 -0.6393 0.7518
vn -0.0016 0.9997 0.0261
vn -0.0012 0.9997 0.0263
vn -0.0017 0.9996 0.0269
vn -0.0007 0.9996 0.0267
vn -0.0008 0.9997 0.0257
vn -0.0013 0.9997 0.0260
vn -0.0011 0.9997 0.0262
vn -0.0011 0.9997 0.0263
vn 0.2352 0.0260 -0.9716
vn 0.9065 0.0122 -0.4221
vn 0.8953 -0.0107 0.4454
vn 0.2100 -0.0256 0.9774
vn -0.6333 0.0045 0.7739
vn -0.9996 0.0261 -0.0122
vn -0.6132 0.0478 -0.7885
vn 0.2353 0.0526 -0.9705
vn 0.9062 0.0379 -0.4213
vn 0.8950 0.0139 0.4459
vn 0.2100 -0.0006 0.9777
vn -0.6280 0.1113 0.7702
vn -0.9905 0.1375 -0.0092
vn -0.6075 0.1610 -0.7779
vn 0.2328 0.1641 -0.9586
vn 0.8983 0.1445 -0.4149
vn 0.8879 0.1168 0.4450
vn 0.2079 0.1020 0.9728
vn -0.5463 0.4895 0.6797
vn -0.8515 0.5244 0.0029
vn -0.5196 0.5498 -0.6540
vn 0.1994 0.5474 -0.8128
vn 0.7801 0.5185 -0.3502
vn 0.7781 0.4841 0.4003
vn 0.1818 0.4712 0.8631
vn -0.6335 -0.0212 0.7734
vn -0.9999 -0.0008 -0.0129
vn -0.6134 0.0201 -0.7895
vn -0.5418 -0.5341 0.6490
vn -0.8442 -0.5354 -0.0255
vn -0.5148 -0.5251 -0.6776
vn 0.1988 -0.5120 -0.8357
vn 0.7769 -0.5060 -0.3748
vn 0.7751 -0.5109 0.3717
vn 0.1819 -0.5238 0.8322
vn -0.6284 0.1101 0.7700
vn -0.9906 0.1363 -0.0091
vn -0.6074 0.1599 -0.7781
vn 0.2326 0.1631 -0.9588
vn 0.8986 0.1433 -0.4148
vn 0.8880 0.1156 0.4451
vn 0.2082 0.1009 0.9729
usemtl beer_1
s 1
f 1/1/1 16/2/1 17/3/1 2/4/1
f 2/4/2 17/3/2 18/5/2 3/6/2
f 3/6/3 18/5/3 19/7/4 4/8/3
f 4/8/5 19/7/5 20/9/5 5/10/5
f 5/10/6 20/9/7 21/11/7 6/12/6
f 6/12/8 21/11/8 22/13/8 7/14/8
f 7/14/9 22/13/10 16/2/9 1/1/10
f 8/15/11 15/16/12 9/17/13
f 9/17/13 15/16/12 10/18/14
f 10/18/14 15/16/12 11/19/15
f 11/19/15 15/16/12 12/20/16
f 12/20/16 15/16/12 13/21/17
f 13/21/17 15/16/12 14/22/18
f 14/22/18 15/16/12 8/15/11
f 19/7/19 26/23/19 27/24/19 20/9/19
f 20/9/20 27/24/20 28/25/20 21/11/20
f 21/11/21 28/25/21 29/26/21 22/13/21
f 22/13/22 29/26/22 23/27/22 16/2/22
f 23/27/23 37/28/23 38/29/23 24/30/23
f 24/30/24 38/29/24 39/31/24 25/32/24
f 25/32/25 39/31/25 40/33/25 26/23/25
f 26/23/26 40/33/26 41/34/26 27/24/26
f 27/24/27 41/34/27 42/35/27 28/25/27
f 28/25/28 42/35/28 43/36/28 29/26/28
f 29/26/29 43/36/29 37/28/29 23/27/29
f 30/37/30 44/38/30 45/39/30 31/40/30
f 31/40/31 45/39/31 46/41/31 32/42/31
f 32/42/32 46/41/32 47/43/32 33/44/32
f 33/44/33 47/43/33 48/45/33 34/46/33
f 34/46/34 48/45/34 49/47/34 35/48/34
f 35/48/35 49/47/35 50/49/35 36/50/35
f 36/50/36 50/49/36 44/38/36 30/37/36
f 37/28/37 30/37/37 31/40/37 38/29/37
f 38/29/38 31/40/38 32/42/38 39/31/38
f 39/31/39 32/42/39 33/44/39 40/33/39
f 40/33/40 33/44/40 34/46/40 41/34/40
f 41/34/41 34/46/41 35/48/41 42/35/41
f 42/35/42 35/48/42 36/50/42 43/36/42
f 43/36/43 36/50/43 30/37/43 37/28/43
usemtl leffe
f 16/51/44 23/52/44 24/53/44 17/54/44
f 17/54/45 24/53/45 25/55/45 18/56/45
f 18/56/46 25/55/46 26/57/46 19/58/46
f 44/59/47 51/60/47 52/61/47 45/62/47
f 45/62/48 52/61/48 53/63/48 46/64/48
f 46/64/49 53/63/49 54/65/49 47/66/49
f 47/66/50 54/65/50 55/67/50 48/68/50
f 48/68/51 55/67/51 56/69/51 49/70/51
f 49/70/52 56/69/52 57/71/52 50/72/52
f 50/72/53 57/71/53 51/60/53 44/59/53
f 51/60/54 8/73/54 9/74/54 52/61/54
f 52/61/55 9/74/55 10/75/55 53/63/55
f 53/63/56 10/75/56 11/76/56 54/65/56
f 54/65/57 11/76/57 12/77/57 55/67/57
f 55/67/58 12/77/58 13/78/58 56/69/58
f 56/69/59 13/78/59 14/79/59 57/71/59
f 57/71/60 14/79/60 8/73/60 51/60/60
